<svg width="512" height="512" viewBox="0 0 512 512" xmlns="http://www.w3.org/2000/svg">
  <defs>
    <linearGradient id="granite" x1="0.1" y1="0.05" x2="0.9" y2="1">
      <stop offset="0" stop-color="#8B99A8"/>
      <stop offset="0.55" stop-color="#5E6B79"/>
      <stop offset="1" stop-color="#434E5B"/>
    </linearGradient>
    <linearGradient id="ochre" x1="0" y1="0" x2="0" y2="1">
      <stop offset="0" stop-color="#D24A38"/>
      <stop offset="1" stop-color="#9E2C20"/>
    </linearGradient>
    <path id="stone" d="M 142 168
      C 142 100, 196 66, 256 66
      C 316 66, 370 100, 370 168
      L 380 410
      C 382 438, 364 452, 338 452
      L 174 452
      C 148 452, 130 438, 132 410
      Z"/>
    <clipPath id="stoneClip"><use href="#stone"/></clipPath>
  </defs>

  <use href="#stone" fill="url(#granite)" stroke="#333D49" stroke-width="7"/>

  <g clip-path="url(#stoneClip)">
    <ellipse cx="196" cy="150" rx="150" ry="120" fill="#A7B4C2" opacity="0.28"/>
    <ellipse cx="360" cy="440" rx="150" ry="120" fill="#2F3845" opacity="0.30"/>
  </g>

  <use href="#stone"
       transform="translate(256 259) scale(0.86) translate(-256 -259)"
       fill="none" stroke="#B23A2E" stroke-width="7"
       stroke-dasharray="22 13" stroke-linecap="butt" opacity="0.92"/>

  <path d="M 176 158
           L 336 158
           L 336 196
           L 322 208
           L 280 208
           L 286 360
           L 300 384
           L 212 384
           L 226 360
           L 232 208
           L 190 208
           L 176 196
           Z"
        fill="url(#ochre)" stroke="#7E2418" stroke-width="5" stroke-linejoin="round"/>
  <path d="M 180 162 L 332 162" stroke="#E86A57" stroke-width="4"
        stroke-linecap="round" opacity="0.55"/>
</svg>
